<?xml version="1.0" encoding="UTF-8" standalone="no"?>
<svg width="200px" height="179px" viewBox="0 0 200 179" version="1.1" xmlns="http://www.w3.org/2000/svg" xmlns:xlink="http://www.w3.org/1999/xlink" xmlns:sketch="http://www.bohemiancoding.com/sketch/ns">
    <!-- Generator: Sketch 3.3.2 (12043) - http://www.bohemiancoding.com/sketch -->
    <title>cup3</title>
    <desc>Created with Sketch.</desc>
    <defs></defs>
    <g id="Page-1" stroke="none" stroke-width="1" fill="none" fill-rule="evenodd" sketch:type="MSPage">
        <g id="Artboard-1" sketch:type="MSArtboardGroup" transform="translate(-52.000000, -57.000000)">
            <g id="cup3" sketch:type="MSLayerGroup" transform="translate(52.000000, 57.000000)">
                <g id="Group" sketch:type="MSShapeGroup">
                    <path d="M54.2693989,53.2983829 C53.5939891,56.000943 55.1650273,58.769212 57.7721311,59.4704842 C60.379235,60.1694905 63.0497268,58.5409304 63.7256831,55.8400696 C64.4010929,53.1375095 62.8300546,50.3692405 60.2229508,49.6679684 C57.6153005,48.9672627 54.9448087,50.5958228 54.2693989,53.2983829 L54.2693989,53.2983829 Z" id="Shape" fill="#000000"></path>
                    <path d="M162.674863,25.7709019 L158.001639,25.7709019 L158.001639,24.4618228 C158.001639,18.2047532 153.108743,13.1327089 147.072678,13.1327089 L104.393443,13.1327089 C101.144809,3.19311076 95.984153,0.662753165 92.1868852,0.373860759 C84.5868852,-0.206756329 72.2469945,9.61218671 66.7256831,34.6818165 L81.9770492,54.6454146 C82.8081967,55.7341424 83.1,57.1633101 82.763388,58.506943 L73.057377,97.3227532 C72.4650273,99.6916709 70.1327869,101.112908 67.8491803,100.49887 L29.7344262,90.2579177 C27.4491803,89.6444462 26.0770492,87.2262468 26.6693989,84.8578956 L36.3754098,46.0426519 C36.7114754,44.699019 37.6360656,43.5961297 38.8726776,43.061962 L61.3879781,33.3659399 C61.9300546,29.7768766 63.6174863,21.2449209 68.1759563,13.130443 L10.9289617,13.130443 C4.89234973,13.130443 0,18.2024873 0,24.459557 L0,125.166883 C0,148.367775 18.0464481,167.271535 40.3519126,167.612541 C42.7245902,173.967608 48.6737705,178.477161 55.6415301,178.477161 L102.360656,178.477161 C109.328962,178.477161 115.277049,173.967608 117.649727,167.612541 C137.536066,167.309487 154.023497,152.246864 157.369945,132.542703 L162.674317,132.542703 C183.163934,132.542703 199.832787,115.262405 199.832787,94.0237152 L199.832787,64.2881899 C199.833333,43.0506329 183.164481,25.7709019 162.674863,25.7709019 L162.674863,25.7709019 Z M81.789071,13.1332753 C84.5349727,9.35048418 88.3945355,6.30805063 91.6956284,6.58391456 C94.6404372,6.83428797 96.6551913,9.90561076 97.9721311,13.1332753 L81.789071,13.1332753 L81.789071,13.1332753 Z M177.97541,94.025981 C177.97541,102.770924 171.110929,109.886741 162.674863,109.886741 L158.001639,109.886741 L158.001639,48.4291297 L162.674863,48.4291297 C171.110929,48.4291297 177.97541,55.5443797 177.97541,64.2898892 L177.97541,94.025981 L177.97541,94.025981 Z" id="Shape" fill="#AA6426"></path>
                </g>
            </g>
        </g>
    </g>
</svg>